<mxfile host="app.diagrams.net" modified="2024-04-27T04:10:25.610Z" agent="Mozilla/5.0 (Windows NT 10.0; Win64; x64) AppleWebKit/537.36 (KHTML, like Gecko) Chrome/124.0.0.0 Safari/537.36 Edg/124.0.0.0" etag="TDlt3jULKeOmCfih92Rw" version="24.3.0" type="github">
  <diagram name="第 1 页" id="V3bjCGqsJ5IWE-Cr8PC0">
    <mxGraphModel dx="1173" dy="734" grid="1" gridSize="10" guides="1" tooltips="1" connect="1" arrows="1" fold="1" page="1" pageScale="1" pageWidth="827" pageHeight="1169" math="0" shadow="0">
      <root>
        <mxCell id="0" />
        <mxCell id="1" parent="0" />
        <mxCell id="4ANP9i2NN_yyuxEKh9a--18" value="" style="rounded=0;whiteSpace=wrap;html=1;fillColor=#d5e8d4;strokeColor=#82b366;" vertex="1" parent="1">
          <mxGeometry x="373" y="40" width="400" height="630" as="geometry" />
        </mxCell>
        <mxCell id="4ANP9i2NN_yyuxEKh9a--17" value="" style="rounded=0;whiteSpace=wrap;html=1;fillColor=#fff2cc;strokeColor=#d6b656;" vertex="1" parent="1">
          <mxGeometry x="43" y="40" width="330" height="630" as="geometry" />
        </mxCell>
        <mxCell id="4ANP9i2NN_yyuxEKh9a--5" value="" style="edgeStyle=orthogonalEdgeStyle;rounded=0;orthogonalLoop=1;jettySize=auto;html=1;entryX=0;entryY=0.5;entryDx=0;entryDy=0;entryPerimeter=0;" edge="1" parent="1" source="4ANP9i2NN_yyuxEKh9a--1" target="4ANP9i2NN_yyuxEKh9a--11">
          <mxGeometry relative="1" as="geometry">
            <mxPoint x="370" y="290" as="targetPoint" />
          </mxGeometry>
        </mxCell>
        <mxCell id="4ANP9i2NN_yyuxEKh9a--6" value="数据拉取、组装&lt;br&gt;数据注入" style="edgeLabel;html=1;align=center;verticalAlign=middle;resizable=0;points=[];" vertex="1" connectable="0" parent="4ANP9i2NN_yyuxEKh9a--5">
          <mxGeometry x="0.0023" y="-2" relative="1" as="geometry">
            <mxPoint as="offset" />
          </mxGeometry>
        </mxCell>
        <mxCell id="4ANP9i2NN_yyuxEKh9a--1" value="数据集" style="rounded=0;whiteSpace=wrap;html=1;" vertex="1" parent="1">
          <mxGeometry x="90" y="260" width="120" height="60" as="geometry" />
        </mxCell>
        <mxCell id="4ANP9i2NN_yyuxEKh9a--7" value="" style="edgeStyle=orthogonalEdgeStyle;rounded=0;orthogonalLoop=1;jettySize=auto;html=1;" edge="1" parent="1" source="4ANP9i2NN_yyuxEKh9a--3" target="4ANP9i2NN_yyuxEKh9a--1">
          <mxGeometry relative="1" as="geometry" />
        </mxCell>
        <mxCell id="4ANP9i2NN_yyuxEKh9a--3" value="后端" style="shape=umlActor;verticalLabelPosition=bottom;verticalAlign=top;html=1;outlineConnect=0;" vertex="1" parent="1">
          <mxGeometry x="135" y="110" width="30" height="60" as="geometry" />
        </mxCell>
        <mxCell id="4ANP9i2NN_yyuxEKh9a--10" value="" style="edgeStyle=orthogonalEdgeStyle;rounded=0;orthogonalLoop=1;jettySize=auto;html=1;" edge="1" parent="1" source="4ANP9i2NN_yyuxEKh9a--8" target="4ANP9i2NN_yyuxEKh9a--9">
          <mxGeometry relative="1" as="geometry" />
        </mxCell>
        <mxCell id="4ANP9i2NN_yyuxEKh9a--8" value="前端" style="shape=umlActor;verticalLabelPosition=bottom;verticalAlign=top;html=1;outlineConnect=0;" vertex="1" parent="1">
          <mxGeometry x="650" y="110" width="30" height="60" as="geometry" />
        </mxCell>
        <mxCell id="4ANP9i2NN_yyuxEKh9a--9" value="ApiJson" style="whiteSpace=wrap;html=1;rounded=0;" vertex="1" parent="1">
          <mxGeometry x="605" y="260" width="120" height="60" as="geometry" />
        </mxCell>
        <mxCell id="4ANP9i2NN_yyuxEKh9a--14" value="" style="edgeStyle=orthogonalEdgeStyle;rounded=0;orthogonalLoop=1;jettySize=auto;html=1;" edge="1" parent="1" source="4ANP9i2NN_yyuxEKh9a--11" target="4ANP9i2NN_yyuxEKh9a--13">
          <mxGeometry relative="1" as="geometry" />
        </mxCell>
        <mxCell id="4ANP9i2NN_yyuxEKh9a--11" value="Mysql" style="shape=cylinder3;whiteSpace=wrap;html=1;boundedLbl=1;backgroundOutline=1;size=15;" vertex="1" parent="1">
          <mxGeometry x="414" y="250" width="60" height="80" as="geometry" />
        </mxCell>
        <mxCell id="4ANP9i2NN_yyuxEKh9a--12" style="edgeStyle=orthogonalEdgeStyle;rounded=0;orthogonalLoop=1;jettySize=auto;html=1;entryX=1;entryY=0.5;entryDx=0;entryDy=0;entryPerimeter=0;" edge="1" parent="1" source="4ANP9i2NN_yyuxEKh9a--9" target="4ANP9i2NN_yyuxEKh9a--11">
          <mxGeometry relative="1" as="geometry" />
        </mxCell>
        <mxCell id="4ANP9i2NN_yyuxEKh9a--19" value="Text" style="edgeLabel;html=1;align=center;verticalAlign=middle;resizable=0;points=[];" vertex="1" connectable="0" parent="4ANP9i2NN_yyuxEKh9a--12">
          <mxGeometry x="-0.005" y="1" relative="1" as="geometry">
            <mxPoint as="offset" />
          </mxGeometry>
        </mxCell>
        <mxCell id="4ANP9i2NN_yyuxEKh9a--16" value="" style="edgeStyle=orthogonalEdgeStyle;rounded=0;orthogonalLoop=1;jettySize=auto;html=1;" edge="1" parent="1" source="4ANP9i2NN_yyuxEKh9a--13" target="4ANP9i2NN_yyuxEKh9a--15">
          <mxGeometry relative="1" as="geometry" />
        </mxCell>
        <mxCell id="4ANP9i2NN_yyuxEKh9a--13" value="前端数据获取" style="whiteSpace=wrap;html=1;" vertex="1" parent="1">
          <mxGeometry x="384" y="420" width="120" height="60" as="geometry" />
        </mxCell>
        <mxCell id="4ANP9i2NN_yyuxEKh9a--15" value="页面渲染" style="whiteSpace=wrap;html=1;" vertex="1" parent="1">
          <mxGeometry x="384" y="560" width="120" height="60" as="geometry" />
        </mxCell>
      </root>
    </mxGraphModel>
  </diagram>
</mxfile>
